HIERARCHY
ROOT Hips
{
	OFFSET -3.958830 18.904000 13.208200
	CHANNELS 6 Xposition Yposition Zposition Zrotation Yrotation Xrotation 
	JOINT LHipJoint
	{
		OFFSET 0.000000 0.000000 0.000000
		CHANNELS 3 Zrotation Yrotation Xrotation
		JOINT LeftUpLeg
		{
			OFFSET 1.800000 -1.400000 0.085000
			CHANNELS 3 Zrotation Yrotation Xrotation
			JOINT LeftLeg
			{
				OFFSET 2.215000 -6.000000 0.000000
				CHANNELS 3 Zrotation Yrotation Xrotation
				JOINT LeftFoot
				{
					OFFSET 2.500000 -6.900000 0.000000
					CHANNELS 3 Zrotation Yrotation Xrotation
					JOINT LeftToeBase
					{
						OFFSET 0.200000 -0.500000 1.950000
						CHANNELS 3 Zrotation Yrotation Xrotation
						End Site
						{
							OFFSET 0.000000 0.000000 0.000000
						}
					}
				}
			}
		}
	}
	JOINT RHipJoint
	{
		OFFSET 0.000000 0.000000 0.000000
		CHANNELS 3 Zrotation Yrotation Xrotation
		JOINT RightUpLeg
		{
			OFFSET -1.800000 -1.400000 0.085000
			CHANNELS 3 Zrotation Yrotation Xrotation
			JOINT RightLeg
			{
				OFFSET -2.215000 -6.000000 0.000000
				CHANNELS 3 Zrotation Yrotation Xrotation
				JOINT RightFoot
				{
					OFFSET -2.500000 -6.900000 0.000000
					CHANNELS 3 Zrotation Yrotation Xrotation
					JOINT RightToeBase
					{
						OFFSET -0.200000 -0.500000 1.950000
						CHANNELS 3 Zrotation Yrotation Xrotation
						End Site
						{
							OFFSET 0.000000 0.000000 0.000000
						}
					}
				}
			}
		}
	}
	JOINT LowerBack
	{
		OFFSET 0.000000 0.000000 0.000000
		CHANNELS 3 Zrotation Yrotation Xrotation
		JOINT Spine
		{
			OFFSET -0.087000 1.940000 -0.288900
			CHANNELS 3 Zrotation Yrotation Xrotation
			JOINT Spine1
			{
				OFFSET 0.000000 1.950000 0.060000
				CHANNELS 3 Zrotation Yrotation Xrotation
				JOINT Neck
				{
					OFFSET 0.000000 0.000000 0.000000
					CHANNELS 3 Zrotation Yrotation Xrotation
					JOINT Neck1
					{
						OFFSET 0.000000 1.600000 0.340000
						CHANNELS 3 Zrotation Yrotation Xrotation
						JOINT Head
						{
							OFFSET 0.000000 1.667000 -0.240000
							CHANNELS 3 Zrotation Yrotation Xrotation
							End Site
							{
								OFFSET 0.000000 0.000000 0.000000
							}
						}
					}
				}
				JOINT LeftShoulder
				{
					OFFSET 0.000000 0.000000 0.000000
					CHANNELS 3 Zrotation Yrotation Xrotation
					JOINT LeftArm
					{
						OFFSET 2.700000 1.550000 -0.730000
						CHANNELS 3 Zrotation Yrotation Xrotation
						JOINT LeftForeArm
						{
							OFFSET 5.450000 0.000000 0.000000
							CHANNELS 3 Zrotation Yrotation Xrotation
							JOINT LeftHand
							{
								OFFSET 3.450000 0.000000 0.000000
								CHANNELS 3 Zrotation Yrotation Xrotation
								JOINT LeftHandIndex1
								{
									OFFSET 0.750000 0.000000 0.000000
									CHANNELS 3 Zrotation Yrotation Xrotation
									End Site
									{
										OFFSET 0.000000 0.000000 0.000000
									}
								}
							}
						}
					}
				}
				JOINT RightShoulder
				{
					OFFSET 0.000000 0.000000 0.000000
					CHANNELS 3 Zrotation Yrotation Xrotation
					JOINT RightArm
					{
						OFFSET -2.700000 1.550000 -0.730000
						CHANNELS 3 Zrotation Yrotation Xrotation
						JOINT RightForeArm
						{
							OFFSET -5.450000 0.000000 0.000000
							CHANNELS 3 Zrotation Yrotation Xrotation
							JOINT RightHand
							{
								OFFSET -3.450000 0.000000 0.000000
								CHANNELS 3 Zrotation Yrotation Xrotation
								JOINT RightHandIndex1
								{
									OFFSET -0.750000 0.000000 0.000000
									CHANNELS 3 Zrotation Yrotation Xrotation
									End Site
									{
										OFFSET 0.000000 0.000000 0.000000
									}
								}
							}
						}
					}
				}
			}
		}
	}
}
MOTION
Frames: 8
Frame Time: 0.016667
4.310630 17.520620 -1.455260 -0.640533 -11.778205 -7.052239 -14.354262 12.193778 3.546268 15.606979 -2.041659 8.095075 -14.121575 5.703158 -1.173776 0.024221 5.904201 2.446394 0.318350 0.058070 0.817600 19.067335 -11.617835 1.929865 -12.961519 -5.683315 -12.251133 -5.451171 -3.879227 4.216252 -0.408144 -3.183801 3.041038 0.004280 -0.451540 0.184980 -5.792730 0.105682 -7.536716 27.794990 -13.076429 24.425335 -12.916678 -9.748837 28.500164 -2.741569 -3.626603 -22.875545 -22.704046 14.383562 36.747046 -25.923230 20.003270 -22.068020 2.066782 -44.597181 8.068379 -2.359246 -21.367204 -17.737520 32.447007 -12.187035 -7.683415 -4.031254 3.121418 0.627200 -0.085010 0.283990 -0.334160 0.313648 25.893874 7.734952 72.059401 8.926283 -11.887196 -14.511320 6.131006 -0.663233 2.511129 -1.586854 -0.117710 -0.171050 -0.052780 -0.522300 
4.413790 17.520520 -1.480850 -0.666854 -10.255739 -7.127415 -14.399318 12.166950 3.678549 15.493070 -2.336274 8.096596 -15.065637 5.424080 -2.616324 0.083250 5.988378 2.430278 0.320980 0.059620 0.807980 19.064091 -11.600661 1.673659 -11.814897 -6.234773 -12.958412 -7.461711 -3.854160 6.111955 -0.395616 -3.101353 3.067965 -0.004990 -0.439690 0.188020 -5.740839 -0.078284 -7.508708 28.380547 -14.346512 24.227427 -14.393794 -10.688256 27.837305 -2.041430 -3.863188 -23.051792 -24.271362 15.055855 35.646940 -25.648340 20.103860 -21.739450 1.881227 -43.127321 9.479146 -3.584860 -23.161881 -20.757890 35.316187 -19.444984 -10.531924 -4.327777 3.075844 0.621270 -0.089480 0.286550 -0.316320 -0.780029 23.917744 6.826961 74.400938 8.430941 -12.422729 -12.881354 5.878702 -0.465148 2.537041 -1.566226 -0.107620 -0.167870 -0.060550 -0.505190 
4.522930 17.520030 -1.502550 -1.564837 -8.973469 -6.669262 -14.487260 12.231935 3.780828 15.967235 -2.659092 7.267895 -15.208196 5.115203 -3.869125 0.113916 5.991389 2.421159 0.293830 0.027250 0.763940 19.018652 -11.504089 1.434190 -9.748116 -6.517227 -13.624394 -8.767500 -3.876410 8.567051 -0.373542 -2.979657 3.108168 -0.038760 -0.431920 0.178260 -5.573818 -0.469624 -7.371145 30.131829 -16.002613 23.398541 -16.439022 -11.330648 27.162614 -0.299541 -4.068923 -23.915890 -26.951480 16.952487 35.037520 -25.078730 20.814920 -21.207730 -0.616441 -41.404998 12.865440 -3.156622 -25.074235 -25.504116 39.694266 -28.344191 -14.848360 -5.357488 3.271351 0.637490 -0.117550 0.287720 -0.312160 -0.926541 22.793644 6.221350 75.461279 7.510296 -12.618568 -10.356144 4.605033 -0.054684 2.592795 -1.488322 -0.105240 -0.166380 -0.040510 -0.486910 
4.608270 17.538920 -1.519050 -1.899054 -7.531303 -7.553159 -14.559453 12.364822 3.835094 16.087057 -2.822647 7.462948 -15.256522 5.093990 -4.059181 0.161854 5.996266 2.396362 0.301060 0.024640 0.756220 18.963782 -11.403508 1.336796 -8.799722 -7.068893 -12.589411 -9.670585 -3.955519 8.939343 -0.423720 -2.977438 3.118077 -0.071970 -0.489670 0.161410 -5.401393 -0.919065 -7.383380 30.133897 -17.241068 24.267834 -17.080839 -11.829665 27.135907 1.049291 -3.544042 -25.208597 -28.767776 18.093530 36.089850 -25.490140 20.963900 -22.189030 -3.923845 -41.835217 14.876067 -0.954500 -25.393567 -29.149977 42.679060 -37.077205 -18.716776 -7.483365 3.981541 0.688120 -0.193680 0.326310 -0.311540 -0.175830 23.134338 6.377468 76.018923 6.271239 -13.435980 -10.140025 4.593844 0.097916 2.639156 -1.437266 -0.083270 -0.182790 -0.046590 -0.482700 
4.667580 17.543910 -1.552090 -1.256674 -7.590028 -8.351696 -14.621748 12.499047 3.940867 15.464058 -2.927764 8.333962 -15.995006 5.131240 -4.201664 0.260074 6.069411 2.380302 0.281200 0.009060 0.737640 18.894595 -11.307220 1.323538 -8.405382 -7.418228 -12.731279 -10.837330 -3.859302 8.308345 -0.439045 -2.923619 3.156182 -0.111500 -0.507520 0.149570 -5.208706 -1.344505 -7.573617 27.420196 -17.074235 25.994410 -15.981197 -11.902857 28.023076 1.755182 -2.972817 -26.647677 -28.942340 19.186288 36.992096 -26.942740 22.277640 -23.170970 -5.239519 -43.072097 16.703771 0.513237 -25.626461 -36.591879 45.049989 -46.049485 -22.728524 -11.126510 5.742398 0.700160 -0.222620 0.347160 -0.301580 -0.544395 23.778444 6.282505 75.750281 6.692488 -13.060712 -9.414352 3.266046 0.426795 2.688198 -1.421391 -0.069900 -0.191610 -0.055810 -0.470810 
4.734200 17.551810 -1.583830 -1.829377 -7.614416 -8.528312 -14.632470 12.369427 3.987842 15.594138 -3.029486 9.202275 -15.630409 4.945798 -5.283377 0.283872 6.057164 2.389667 0.268270 -0.012730 0.724130 18.876530 -11.420214 1.364916 -6.570904 -7.402080 -13.335757 -12.197282 -3.791678 8.818371 -0.454779 -2.895008 3.157565 -0.136950 -0.514750 0.140420 -5.157676 -0.937632 -7.808740 27.162056 -17.773321 26.798381 -15.498451 -12.548777 28.806233 3.008465 -2.828353 -28.464162 -30.952894 20.619555 36.820287 -27.549020 22.980870 -24.004010 -5.535903 -43.344156 19.842169 0.816700 -26.371450 -48.360602 48.447892 -57.817329 -27.353066 -19.716488 11.110861 0.726670 -0.250830 0.358130 -0.298180 -2.358354 22.756558 5.404645 76.295593 7.170705 -13.208547 -9.135090 2.989583 0.548597 2.712548 -1.432989 -0.072810 -0.187540 -0.049670 -0.467970 
4.797180 17.571370 -1.612760 -2.070079 -7.572202 -8.919195 -14.670659 12.645097 4.105877 15.605755 -3.003930 9.399482 -15.542675 4.955841 -5.763784 0.322524 6.138262 2.357166 0.255280 -0.035930 0.715770 18.847247 -11.162298 1.310848 -5.328464 -7.447430 -13.166430 -13.397872 -3.686940 9.353730 -0.442232 -2.837026 3.184036 -0.157750 -0.536570 0.124960 -5.075446 -1.746765 -7.579020 27.139121 -18.754534 27.465936 -17.961348 -14.323710 24.824335 3.750486 -2.886277 -25.167973 -31.106241 21.564813 36.498938 -28.607950 23.041270 -25.132460 -8.709824 -47.081154 11.823654 -8.525194 -21.185641 -77.638519 -48.287105 -63.660891 144.182954 -12.483497 -0.754792 0.760280 -0.284210 0.367300 -0.309290 -2.096134 26.699199 8.762029 77.522277 6.040684 -13.570276 -9.500928 2.933445 0.635286 2.706504 -1.393113 -0.079710 -0.182620 -0.034580 -0.475650 
4.870640 17.591260 -1.622840 -2.343034 -7.886994 -9.494671 -14.672545 12.703507 4.155411 15.498705 -2.859753 10.201192 -15.673370 5.014283 -6.260515 0.395591 6.187937 2.334735 0.262810 -0.024630 0.717240 18.857871 -11.057213 1.327570 -4.316591 -7.336571 -12.695738 -14.343803 -3.589784 9.563664 -0.459434 -2.849773 3.192768 -0.171040 -0.568620 0.116720 -5.098925 -1.839324 -7.446926 28.016967 -19.518670 27.684289 -20.401952 -13.853045 24.959043 5.122509 -2.809394 -25.250403 -31.142379 21.905525 36.502975 -29.320540 22.908780 -25.508180 -10.033658 -46.043731 13.377623 -9.021328 -22.413473 -67.348396 -43.604248 -72.578954 137.102465 -7.391350 -2.886249 0.767990 -0.313710 0.388730 -0.306010 -3.903142 26.870508 8.750321 79.422469 6.268166 -14.370893 -10.011812 3.347896 0.634817 2.735968 -1.382497 -0.058260 -0.192730 -0.048000 -0.468210 
